<?xml version="1.0" encoding="UTF-8" standalone="no"?>
<!-- Generator: Adobe Illustrator 15.1.0, SVG Export Plug-In . SVG Version: 6.00 Build 0)  -->

<svg
   xmlns:dc="http://purl.org/dc/elements/1.1/"
   xmlns:cc="http://creativecommons.org/ns#"
   xmlns:rdf="http://www.w3.org/1999/02/22-rdf-syntax-ns#"
   xmlns:svg="http://www.w3.org/2000/svg"
   xmlns="http://www.w3.org/2000/svg"
   xmlns:sodipodi="http://sodipodi.sourceforge.net/DTD/sodipodi-0.dtd"
   xmlns:inkscape="http://www.inkscape.org/namespaces/inkscape"
   version="1.1"
   id="Layer_1"
   x="0px"
   y="0px"
   width="307.775px"
   height="255.882px"
   viewBox="0 0 307.775 255.882"
   enable-background="new 0 0 307.775 255.882"
   xml:space="preserve"
   inkscape:version="0.48.4 r9939"
   sodipodi:docname="keys.svg"><metadata
     id="metadata65"><rdf:RDF><cc:Work
         rdf:about=""><dc:format>image/svg+xml</dc:format><dc:type
           rdf:resource="http://purl.org/dc/dcmitype/StillImage" /><dc:title></dc:title></cc:Work></rdf:RDF></metadata><defs
     id="defs63" /><sodipodi:namedview
     pagecolor="#ffffff"
     bordercolor="#666666"
     borderopacity="1"
     objecttolerance="10"
     gridtolerance="10"
     guidetolerance="10"
     inkscape:pageopacity="0"
     inkscape:pageshadow="2"
     inkscape:window-width="1580"
     inkscape:window-height="1013"
     id="namedview61"
     showgrid="false"
     inkscape:zoom="3.6892004"
     inkscape:cx="204.89146"
     inkscape:cy="108.98238"
     inkscape:window-x="0"
     inkscape:window-y="0"
     inkscape:window-maximized="1"
     inkscape:current-layer="Layer_1" /><path
     style="fill:#cccccc"
     inkscape:connector-curvature="0"
     id="path5"
     d="m 138.265,99.923 h -20.8 c -3.7,0 -6.9,1.3 -9.4,3.8 -2.7,2.7 -3.9,5.8 -3.9,9.5 v 11.5 c 0,3.701 1.2,6.8 3.9,9.399 2.5,2.601 5.7,3.9 9.4,3.9 h 20.8 c 3.699,0 6.8,-1.301 9.3,-3.9 2.7,-2.6 3.899,-5.699 3.899,-9.399 v -11.5 c 0,-3.7 -1.199,-6.8 -3.899,-9.5 -2.5,-2.5 -5.601,-3.8 -9.3,-3.8 z" /><path
     style="fill:#ffffff"
     inkscape:connector-curvature="0"
     id="path7"
     d="m 136.565,98.223 h -16.8 c -2.9,0 -5.5,1.1 -7.5,3.2 -2.1,2 -3.1,4.6 -3.1,7.5 v 9.3 c 0,3 1,5.6 3.1,7.6 2,2.101 4.6,3.1 7.5,3.1 h 16.8 c 2.899,0 5.5,-1 7.5,-3.1 2.2,-2 3.2,-4.6 3.2,-7.6 v -9.3 c 0,-2.9 -1,-5.5 -3.2,-7.5 -2,-2.1 -4.601,-3.2 -7.5,-3.2 z" /><path
     style="fill:#cccccc"
     inkscape:connector-curvature="0"
     id="path13"
     d="m 138.014,145.324 h -20.801 c -3.699,0 -6.899,1.199 -9.399,3.898 -2.7,2.602 -3.899,5.701 -3.899,9.301 v 11.6 c 0,3.701 1.199,6.801 3.899,9.4 2.5,2.6 5.7,3.9 9.399,3.9 h 20.801 c 3.699,0 6.8,-1.301 9.3,-3.9 2.7,-2.6 3.899,-5.699 3.899,-9.4 v -11.6 c 0,-3.6 -1.199,-6.699 -3.899,-9.301 -2.5,-2.699 -5.601,-3.898 -9.3,-3.898 z" /><path
     style="fill:#ffffff"
     inkscape:connector-curvature="0"
     id="path15"
     d="m 136.314,143.623 h -16.8 c -2.9,0 -5.5,1.1 -7.5,3.201 -2.1,2.1 -3.1,4.6 -3.1,7.5 v 9.299 c 0,3 1,5.6 3.1,7.6 2,2.102 4.6,3.102 7.5,3.102 h 16.8 c 2.899,0 5.5,-1 7.5,-3.102 2.2,-2 3.2,-4.6 3.2,-7.6 v -9.299 c 0,-2.9 -1,-5.4 -3.2,-7.5 -2,-2.102 -4.601,-3.201 -7.5,-3.201 z" /><path
     style="fill:#cccccc"
     inkscape:connector-curvature="0"
     id="path17"
     d="m 194.565,145.324 h -20.8 c -3.7,0 -6.801,1.199 -9.4,3.898 -2.6,2.602 -3.898,5.701 -3.898,9.301 v 11.6 c 0,3.701 1.3,6.801 3.898,9.4 2.602,2.6 5.7,3.9 9.4,3.9 h 20.8 c 3.7,0 6.899,-1.301 9.399,-3.9 2.601,-2.6 3.899,-5.699 3.899,-9.4 v -11.6 c 0,-3.6 -1.3,-6.699 -3.899,-9.301 -2.5,-2.699 -5.699,-3.898 -9.399,-3.898 z" /><path
     style="fill:#ffffff"
     inkscape:connector-curvature="0"
     id="path19"
     d="m 192.964,143.623 h -16.799 c -2.9,0 -5.5,1.101 -7.602,3.201 -2.1,2.1 -3.1,4.6 -3.1,7.5 v 9.299 c 0,3 1,5.601 3.1,7.601 2.102,2.101 4.7,3.101 7.602,3.101 h 16.799 c 2.899,0 5.399,-1 7.5,-3.101 2.101,-2 3.101,-4.601 3.101,-7.601 v -9.299 c 0,-2.9 -1,-5.4 -3.101,-7.5 -2.099,-2.102 -4.599,-3.201 -7.5,-3.201 z" /><path
     style="fill:#cccccc"
     inkscape:connector-curvature="0"
     id="path21"
     d="m 80.365,145.324 h -20.8 c -3.6,0 -6.8,1.199 -9.4,3.898 -2.6,2.602 -3.9,5.701 -3.9,9.301 v 11.6 c 0,3.701 1.3,6.801 3.9,9.4 2.6,2.599 5.8,3.9 9.4,3.9 h 20.8 c 3.7,0 6.9,-1.301 9.4,-3.9 2.6,-2.6 3.9,-5.699 3.9,-9.4 v -11.6 c 0,-3.6 -1.3,-6.699 -3.9,-9.301 -2.5,-2.699 -5.7,-3.898 -9.4,-3.898 z" /><path
     style="fill:#ffffff"
     inkscape:connector-curvature="0"
     id="path23"
     d="m 78.665,143.623 h -16.7 c -3,0 -5.5,1.101 -7.6,3.201 -2.1,2.1 -3.1,4.6 -3.1,7.5 v 9.299 c 0,3 1,5.601 3.1,7.601 2.1,2.101 4.6,3.101 7.6,3.101 h 16.7 c 3,0 5.5,-1 7.6,-3.101 2,-2 3.1,-4.601 3.1,-7.601 v -9.299 c 0,-2.9 -1.1,-5.4 -3.1,-7.5 -2.1,-2.102 -4.6,-3.201 -7.6,-3.201 z" /><polygon
     style="fill:#333333"
     id="polygon25"
     points="131.265,111.923 136.065,111.923 127.465,103.423 119.065,111.923 123.765,111.923 123.765,121.623 131.265,121.623 " /><polygon
     style="fill:#333333"
     id="polygon27"
     points="186.065,162.222 186.065,167.023 194.565,158.523 186.065,150.023 186.065,154.824 176.365,154.824 176.365,162.222 " /><polygon
     style="fill:#333333"
     id="polygon29"
     points="69.365,154.722 69.365,149.923 60.865,158.523 69.365,166.923 69.365,162.222 79.065,162.222 79.065,154.722 " /><polygon
     style="fill:#333333"
     id="polygon31"
     points="123.765,159.824 119.065,159.824 127.565,168.222 136.065,159.824 131.265,159.824 131.265,150.023 123.765,150.023 " /><path
     style="fill:#cccccc"
     inkscape:connector-curvature="0"
     id="path33"
     d="m 194.964,195.123 h -135.8 c -3.7,0 -6.8,1.201 -9.4,3.9 -2.6,2.6 -3.9,5.699 -3.9,9.301 v 11.6 c 0,3.699 1.3,6.8 3.9,9.4 2.6,2.6 5.7,3.898 9.4,3.898 h 135.8 c 3.699,0 6.899,-1.299 9.399,-3.898 2.601,-2.602 3.9,-5.701 3.9,-9.4 v -11.6 c 0,-3.602 -1.302,-6.701 -3.9,-9.301 -2.498,-2.699 -5.697,-3.9 -9.399,-3.9 z" /><path
     style="fill:#ffffff"
     inkscape:connector-curvature="0"
     id="path35"
     d="m 193.365,193.423 h -131.8 c -2.9,0 -5.5,1.1 -7.6,3.199 -2.1,2.1 -3.1,4.6 -3.1,7.5 v 9.301 c 0,3 1,5.6 3.1,7.6 2.1,2.1 4.7,3.1 7.6,3.1 h 131.8 c 2.9,0 5.4,-1 7.5,-3.1 2.1,-2 3.1,-4.6 3.1,-7.6 v -9.301 c 0,-2.9 -1,-5.4 -3.1,-7.5 -2.1,-2.1 -4.6,-3.199 -7.5,-3.199 z" /><path
     style="fill:#cccccc"
     inkscape:connector-curvature="0"
     id="path41"
     d="m 245.176,182.93 c -7.15,0 -13,-5.85 -13,-13 v -18.308 c 0,-7.15 -3.426,-13 -7.612,-13 -4.186,0 -7.612,-5.85 -7.612,-13 v -12.7 c 0,-7.15 5.85,-13 13,-13 h 42.409 c 7.15,0 13,5.85 13,13 v 57.007 c 0,7.15 -5.85,13 -13,13 h -27.185 z" /><path
     style="fill:#ffffff"
     inkscape:connector-curvature="0"
     id="path43"
     d="m 246.288,98.223 c -5.5,0 -13.496,0 -17.769,0 -4.271,0 -7.768,4.5 -7.768,10 v 10.491 c 0,5.5 3.496,10 7.768,10 4.272,0 7.769,4.5 7.769,10 v 25.215 c 0,5.5 4.5,10 10,10 h 25.273 c 5.5,0 10,-4.5 10,-10 v -25.215 c 0,-5.5 0,-14.5 0,-20 v -10.491 c 0,-5.5 -4.5,-10 -10,-10 h -25.273 z" /><rect
     style="fill:#333333"
     id="rect45"
     height="12"
     width="4"
     y="108.652"
     x="266.70401" /><rect
     style="fill:#333333"
     id="rect47"
     height="4"
     width="30"
     y="116.652"
     x="240.70399" /><polygon
     style="fill:#333333"
     id="polygon49"
     points="241.776,112.782 241.776,118.652 241.776,124.522 236.692,121.587 231.608,118.652 236.692,115.716 " /><text
     xml:space="preserve"
     style="font-size:40px;font-style:normal;font-weight:normal;line-height:125%;letter-spacing:0px;word-spacing:0px;fill:#000000;fill-opacity:1;stroke:none;font-family:Sans"
     x="87.552841"
     y="217.2887"
     id="text3070"
     sodipodi:linespacing="125%"><tspan
       sodipodi:role="line"
       x="87.552841"
       y="217.2887"
       style="font-size:24px;font-style:normal;font-variant:normal;font-weight:bold;font-stretch:normal;fill:#333333;fill-opacity:1;font-family:Futura LT;-inkscape-font-specification:Futura LT Bold"
       id="tspan3842">BOMB</tspan></text>
<text
     xml:space="preserve"
     style="font-size:40px;font-style:normal;font-weight:normal;line-height:125%;letter-spacing:0px;word-spacing:0px;fill:#333333;fill-opacity:1;stroke:none;font-family:Sans"
     x="240.70258"
     y="155.58926"
     id="text3846"
     sodipodi:linespacing="125%"><tspan
       sodipodi:role="line"
       id="tspan3848"
       x="240.70258"
       y="155.58926"
       style="font-size:12px;font-style:normal;font-variant:normal;font-weight:bold;font-stretch:normal;fill:#333333;fill-opacity:1;font-family:Futura LT;-inkscape-font-specification:Futura LT Bold">START</tspan></text>
</svg>